<?xml version="1.0" encoding="UTF-8"?>
<svg id="Layer_1" xmlns="http://www.w3.org/2000/svg" version="1.1" viewBox="0 0 160 160">
  <!-- Generator: Adobe Illustrator 29.8.1, SVG Export Plug-In . SVG Version: 2.1.1 Build 2)  -->
  <defs>
    <style>
      .st0 {
        fill: #fff;
      }

      .st1 {
        stroke: #000;
      }

      .st1, .st2, .st3, .st4 {
        display: none;
      }

      .st1, .st5, .st3, .st4 {
        fill: #105ce9;
      }

      .st1, .st4, .st6 {
        stroke-miterlimit: 10;
      }

      .st7 {
        fill: blue;
      }

      .st4 {
        stroke: #105ce9;
        stroke-width: 4px;
      }

      .st6 {
        fill: none;
        stroke: #00d483;
      }
    </style>
  </defs>
  <rect x="-.15" y=".5" width="160.3" height="159" rx="41.49" ry="41.49"/>
  <path class="st6" d="M-2.63,97.78"/>
  <path class="st4" d="M33.97,32.86v90.68V32.86Z"/>
  <polygon class="st3" points="31.96 123.54 32.06 123.59 35.97 125.54 35.97 123.54 31.96 123.54"/>
  <path class="st7" d="M120.18,122.49"/>
  <g class="st2">
    <ellipse class="st0" cx="78.98" cy="91.31" rx="11.25" ry="13.41"/>
    <path class="st2" d="M82.99,85.79c-1.78-.3-3.35-.08-3.94,0-1.46.21-10.69,3.55-10.73,3.44-.05-.17,11.18-7.88,18.06-3.27,1.3.87,2.6,2.28,2.52,2.45-.11.21-2.41-2.02-5.91-2.61h0Z"/>
    <path class="st0" d="M79.47,90.69"/>
    <polygon class="st1" points="78.37 90.69 83.24 90.2 84.1 86.04 76.8 86.42 78.37 90.69"/>
  </g>
  <g>
    <path class="st0" d="M45,24.35c-.06,34.06-.11,68.13-.17,102.19l16.35.26c.97-1.82,1.95-3.65,2.92-5.47,11.99,8.68,27.26,9.66,37.69,2.74,13.59-9.01,14.08-28.16,14.08-30.3,0-1.25-.07-2.65-.07-2.65-.15-3.24-.38-7.43-1.93-12.45-1.57-5.04-3.67-8.35-4.25-9.22,0,0-.27-.41-.54-.8-1.61-2.3-5.62-7.41-12.08-10.48-16.2-7.67-33.8,4.17-34.9,4.93.12-12.92.23-25.83.35-38.75h-17.45,0Z"/>
    <ellipse cx="79.99" cy="92.94" rx="18.29" ry="21.66"/>
    <path class="st5" d="M64.1,128.9c1.75,1.49,4.59,3.61,8.5,5.25,12.45,5.22,24.31.77,27.82-.74,3.67-1.58,10.07-4.32,14.53-11.35,4.17-6.57,4.32-13.2,4.22-16.02-.43,2.01-3.97,17.47-19.07,25.04-17.92,8.99-35.16-1.64-36-2.18h0Z"/>
    <path class="st5" d="M80.56,72.12c.15-.39,4.95.3,9.15,3.5.38.29,2.2,1.7,4.04,4.28,1.07,1.51,3.98,5.66,4.31,11.68.51,9.04-5.02,15.13-6.41,16.69-3.2,3.56-6.04,4.38-6.76,4.57-2.39.63-4.88.43-4.91.15-.03-.25,1.91-.36,4.35-1.37,4.1-1.68,6.53-4.61,7.31-5.57,2.03-2.5,2.92-4.88,3.41-6.24.83-2.29,1.09-4.14,1.17-4.77,0,0,.27-2.14.1-4.23-.31-3.79-2.28-9.12-6.52-13.18-4.51-4.33-9.39-5.11-9.24-5.5h0Z"/>
    <path class="st5" d="M90.21,107.86"/>
    <path class="st5" d="M50.2,133.05"/>
    <path d="M53.75,23.38l-.11.09c-1.13,1.58-2.59,3.35-4.44,5.13-3,2.88-6,4.79-8.39,6.04v-11.26h12.94Z"/>
    <path d="M57.33,40.42"/>
    <rect class="st5" x="40.81" y="34.64" width="4.02" height="93.44"/>
    <polygon class="st5" points="44.85 32.21 40.81 34.64 44.83 34.64 44.85 32.21"/>
    <rect class="st5" x="40.82" y="126.65" width="20.34" height="1.83" transform="translate(1.84 -.72) rotate(.82)"/>
    <path class="st5" d="M61.15,128.63c1.12-2.34,2.25-4.67,3.37-7.01-.14-.1-.28-.2-.42-.29l-2.92,5.47-.03,1.83Z"/>
  </g>
</svg>